<svg width="7" height="45" fill="none" xmlns="http://www.w3.org/2000/svg"><path id="Arrow" d="m3.21 43.29 2.48-2.48c.2-.19.51-.19.7 0 .2.2.2.51 0 .71l-2.82 2.83c-.2.2-.51.2-.71 0L.03 41.52c-.2-.2-.2-.51 0-.71.2-.19.51-.19.71 0l2.47 2.48Z" fill="#828282" fill-opacity="1" fill-rule="nonzero"/><path id="Arrow" d="m3.71 42.79 1.98-1.98c.2-.19.51-.19.7 0 .2.2.2.51 0 .71l-2.82 2.83c-.2.2-.51.2-.71 0L.03 41.52c-.2-.2-.2-.51 0-.71.2-.19.51-.19.71 0l1.97 1.98V0h1v42.79Z" fill="#03839E" fill-opacity="1" fill-rule="evenodd"/></svg>